
<svg width="12px" height="12px" viewBox="0 0 12 12" version="1.1" xmlns="http://www.w3.org/2000/svg" xmlns:xlink="http://www.w3.org/1999/xlink">
    <!-- Generator: Sketch 49.3 (51167) - http://www.bohemiancoding.com/sketch -->
    <desc>Created with Sketch.</desc>
    <defs></defs>
    <g id="Page-1" stroke="none" stroke-width="1" fill="none" fill-rule="evenodd">
        <g id="codebash" transform="translate(-983.000000, -815.000000)" fill="#6274A6" fill-rule="nonzero">
            <g id="pop-up-1/-3" transform="translate(572.000000, 794.000000)">
                <path d="M423.024495,26.0244949 L417.774495,26.0244949 L417.774495,20.7744949 C417.774495,20.2932449 417.380745,19.8994949 416.899495,19.8994949 C416.418245,19.8994949 416.024495,20.2932449 416.024495,20.7744949 L416.024495,26.0244949 L410.774495,26.0244949 C410.293245,26.0244949 409.899495,26.4182449 409.899495,26.8994949 C409.899495,27.3807449 410.293245,27.7744949 410.774495,27.7744949 L416.024495,27.7744949 L416.024495,33.0244949 C416.024495,33.5057449 416.418245,33.8994949 416.899495,33.8994949 C417.380745,33.8994949 417.774495,33.5057449 417.774495,33.0244949 L417.774495,27.7744949 L423.024495,27.7744949 C423.505745,27.7744949 423.899495,27.3807449 423.899495,26.8994949 C423.899495,26.4182449 423.505745,26.0244949 423.024495,26.0244949 Z" id="close" transform="translate(416.899495, 26.899495) rotate(45.000000) translate(-416.899495, -26.899495) "></path>
            </g>
        </g>
    </g>
</svg>