
<svg width="11px" height="10px" viewBox="0 0 11 10" version="1.1" xmlns="http://www.w3.org/2000/svg" xmlns:xlink="http://www.w3.org/1999/xlink">
    <!-- Generator: Sketch 49.1 (51147) - http://www.bohemiancoding.com/sketch -->
    <desc>Created with Sketch.</desc>
    <defs></defs>
    <g id="Page-1" stroke="none" stroke-width="1" fill="none" fill-rule="evenodd">
        <g id="codebash" transform="translate(-961.000000, -968.000000)" fill="#EF6E4F">
            <g id="pop-up-1/-3" transform="translate(572.000000, 794.000000)">
                <g id="nav" transform="translate(40.000000, 173.000000)">
                    <path d="M353.294118,7.10330676 C353.092437,6.90186044 352.689076,7.03615799 352.689076,7.37190185 L352.689076,8.04338959 C352.689076,8.44628222 352.420168,8.71487732 352.016807,8.71487732 L350.672269,8.71487732 C350.268908,8.71487732 350,8.44628222 350,8.04338959 L350,2.67148773 C350,2.26859509 350.268908,2 350.672269,2 L356.05042,2 C356.453782,2 356.722689,2.26859509 356.722689,2.67148773 L356.722689,4.0144632 C356.722689,4.41735583 356.453782,4.68595093 356.05042,4.68595093 L355.378151,4.68595093 C355.109244,4.68595093 354.907563,5.02169479 355.109244,5.29028989 L357.798319,7.97624081 C358.067227,8.2448359 358.067227,8.64772854 357.798319,8.91632364 L356.857143,9.85640646 C356.655462,10.0578528 356.252101,10.0578528 355.983193,9.78925769 L353.294118,7.10330676 Z" id="right" transform="translate(354.000000, 6.000000) scale(-1, 1) rotate(-45.000000) translate(-354.000000, -6.000000) "></path>
                </g>
            </g>
        </g>
    </g>
</svg>