
<svg width="11px" height="10px" viewBox="0 0 11 10" version="1.1" xmlns="http://www.w3.org/2000/svg" xmlns:xlink="http://www.w3.org/1999/xlink">
    <!-- Generator: Sketch 49.1 (51147) - http://www.bohemiancoding.com/sketch -->
    <desc>Created with Sketch.</desc>
    <defs></defs>
    <g id="Page-1" stroke="none" stroke-width="1" fill="none" fill-rule="evenodd" opacity="0.800000012">
        <g id="codebash" transform="translate(-612.000000, -968.000000)" fill="#3B4D8D">
            <g id="pop-up-1/-3" transform="translate(572.000000, 794.000000)">
                <g id="nav" transform="translate(40.000000, 173.000000)">
                    <path d="M5.29411765,7.10330676 C5.09243697,6.90186044 4.68907563,7.03615799 4.68907563,7.37190185 L4.68907563,8.04338959 C4.68907563,8.44628222 4.42016807,8.71487732 4.01680672,8.71487732 L2.67226891,8.71487732 C2.26890756,8.71487732 2,8.44628222 2,8.04338959 L2,2.67148773 C2,2.26859509 2.26890756,2 2.67226891,2 L8.05042017,2 C8.45378151,2 8.72268908,2.26859509 8.72268908,2.67148773 L8.72268908,4.0144632 C8.72268908,4.41735583 8.45378151,4.68595093 8.05042017,4.68595093 L7.37815126,4.68595093 C7.1092437,4.68595093 6.90756303,5.02169479 7.1092437,5.29028989 L9.79831933,7.97624081 C10.0672269,8.2448359 10.0672269,8.64772854 9.79831933,8.91632364 L8.85714286,9.85640646 C8.65546218,10.0578528 8.25210084,10.0578528 7.98319328,9.78925769 L5.29411765,7.10330676 Z" id="left" transform="translate(6.000000, 6.000000) rotate(-45.000000) translate(-6.000000, -6.000000) "></path>
                </g>
            </g>
        </g>
    </g>
</svg>